PathFileType	4	(X/Y/Z)	9_coords_data.trc
DataRate	CameraRate	NumFrames	NumMarkers	Units	OrigDataRate	OrigDataStartFrame	OrigNumFrames
30.0	30.0	9	21	m	30.0	10	49
Frame#	Time	THUMB_TIP	THUMB_IP	THUMB_MCP	THUMB_CMC	INDEX_TIP	INDEX_DIP	INDEX_PIP	INDEX_MCP	MIDDLE_TIP	MIDDLE_DIP	MIDDLE_PIP	MIDDLE_MCP	RING_TIP	RING_DIP	RING_PIP	RING_MCP	PINKY_TIP	PINKY_DIP	PINKY_PIP	PINKY_MCP	WRIST
X1	Y1	Z1	X2	Y2	Z2	X3	Y3	Z3	X4	Y4	Z4	X5	Y5	Z5	X6	Y6	Z6	X7	Y7	Z7	X8	Y8	Z8	X9	Y9	Z9	X10	Y10	Z10	X11	Y11	Z11	X12	Y12	Z12	X13	Y13	Z13	X14	Y14	Z14	X15	Y15	Z15	X16	Y16	Z16	X17	Y17	Z17	X18	Y18	Z18	X19	Y19	Z19	X20	Y20	Z20	X21	Y21	Z21
9	0.3	0.05153310012817383	-0.001067610025405883	1.02443994140625	0.051165901184082034	-0.012259099960327148	1.0468699951171876	0.03649470138549805	-0.01652050018310547	1.0721800537109376	0.021095800399780273	0.003314579963684082	1.0891800537109375	0.028709199905395506	-0.023608400344848634	1.0583199462890625	0.0406505012512207	-0.023470600128173827	1.0425699462890625	0.03792789840698242	-0.02933919906616211	1.0222999877929688	0.004187220096588134	-0.03638199996948242	1.038530029296875	0.03223460006713867	-0.006587860107421875	1.0553399658203124	0.035896800994873045	-0.004494219779968262	1.04943994140625	0.036524600982666015	-0.007977499961853027	1.022239990234375	-0.0034085299968719483	-0.01546780014038086	1.03	0.02623159980773926	0.006770639896392822	1.06097998046875	0.029810800552368164	0.011350000381469726	1.057800048828125	0.032599201202392576	0.01389840030670166	1.03043994140625	-0.005890590190887451	0.007917479991912842	1.0325799560546876	0.014027600288391113	0.018717899322509765	1.074449951171875	0.026050800323486327	0.024013200759887696	1.0648499755859375	0.027618400573730467	0.030451799392700197	1.0460999755859375	-0.0032023100852966307	0.030535900115966796	1.04243994140625	-0.015380499839782714	0.010623299598693847	1.1144599609375
10	0.3333333333333333	0.051275901794433594	-0.0010627299547195431	1.024550048828125	0.050814701080322267	-0.012281700134277344	1.047050048828125	0.036122798919677734	-0.01633300018310547	1.072760009765625	0.020515199661254882	0.003570780038833618	1.08956005859375	0.028411800384521485	-0.023468500137329103	1.058780029296875	0.040398799896240234	-0.023434999465942383	1.0426700439453125	0.03761299896240235	-0.02943939971923828	1.0223099975585936	0.0037448899745941163	-0.03623590087890625	1.038800048828125	0.03197480010986328	-0.006544489860534668	1.0555999755859375	0.03559260177612305	-0.0045722098350524905	1.04956005859375	0.03628779983520508	-0.007964139938354492	1.0222100219726562	-0.00370032000541687	-0.015480899810791015	1.0302900390625	0.02640920066833496	0.006975580215454103	1.0611500244140626	0.02964389991760254	0.011347599983215332	1.0578499755859374	0.0324380989074707	0.013939200401306152	1.030489990234375	-0.006089570045471192	0.008042070388793945	1.0325400390625	0.014004599571228028	0.018896299362182616	1.07481005859375	0.025980499267578124	0.024056100845336915	1.0648900146484375	0.027565799713134765	0.030482799530029296	1.0460699462890626	-0.0031791000366210927	0.030638599395751955	1.04243994140625	-0.015040800094604493	0.010917400360107422	1.114969970703125
11	0.36666666666666664	0.05145849990844727	-0.000976818978786468	1.024739990234375	0.05087860107421875	-0.012191100120544434	1.047199951171875	0.03611650085449219	-0.016022499084472657	1.0728800048828124	0.020625200271606445	0.003506829977035522	1.0899200439453125	0.028368200302124023	-0.023271299362182616	1.0588599853515626	0.040370601654052735	-0.023308000564575194	1.0428900146484374	0.037719600677490236	-0.02919289970397949	1.0226400146484376	0.0036997499465942383	-0.03603710174560547	1.0388199462890626	0.032000900268554684	-0.006354430198669434	1.056030029296875	0.03579410171508789	-0.004516829967498779	1.04956005859375	0.03636230087280273	-0.0079340500831604	1.0223499755859375	-0.003692780017852783	-0.015234600067138672	1.0305799560546876	0.023351299285888673	0.006922210216522217	1.0641800537109376	0.02953700065612793	0.011499400138854981	1.0580999755859375	0.03261920166015625	0.014035200119018555	1.03075	-0.005950910091400146	0.008302470207214356	1.0329100341796875	0.013985899925231934	0.01911989974975586	1.0749599609375	0.02608769989013672	0.02410390090942383	1.06525	0.027752399444580078	0.03055769920349121	1.0464000244140625	-0.003004640102386474	0.030822099685668944	1.0427099609375	-0.015104999542236328	0.011007800102233886	1.115239990234375
12	0.4	0.05194219970703125	-0.001043089985847473	1.0251099853515624	0.05115439987182617	-0.012049699783325195	1.047489990234375	0.03630139923095703	-0.01592049980163574	1.07327001953125	0.02086079978942871	0.00342628002166748	1.089449951171875	0.028552499771118164	-0.023261100769042968	1.0589599609375	0.04073740005493164	-0.023283700942993164	1.043199951171875	0.03807109832763672	-0.029293899536132813	1.0229199829101563	0.0040691599845886234	-0.03594160079956055	1.0394000244140624	0.03262649917602539	-0.006261250019073486	1.0561400146484374	0.03606489944458008	-0.004440410137176514	1.050219970703125	0.03676649856567383	-0.00790815019607544	1.0226500244140626	-0.003263649940490722	-0.015151900291442871	1.03068994140625	0.025605899810791016	0.006806429862976074	1.0629300537109374	0.02981159973144531	0.011556599617004394	1.0584100341796876	0.03290380096435547	0.014120699882507325	1.0309300537109376	-0.005549590110778809	0.008340880393981934	1.03302001953125	0.014477800369262696	0.019201799392700194	1.075300048828125	0.02640690040588379	0.02411739921569824	1.0655999755859376	0.028106599807739257	0.030566699981689455	1.04668994140625	-0.002626579999923706	0.030912500381469726	1.0429100341796875	-0.015075200080871582	0.011016300201416016	1.1151500244140624
13	0.43333333333333335	0.05256840133666992	-0.001685179948806762	1.0251400146484375	0.05119079971313477	-0.012394399642944335	1.04822998046875	0.0364031982421875	-0.016005399703979493	1.07418994140625	0.020971200942993165	0.0035605800151824953	1.090510009765625	0.028816699981689453	-0.023555400848388672	1.0594200439453125	0.04102970123291016	-0.023495800018310548	1.0436600341796876	0.03842739868164063	-0.029564699172973632	1.0234000244140624	0.004500339984893799	-0.03609389877319336	1.039489990234375	0.03269820022583008	-0.0065338401794433594	1.0565	0.03664590072631836	-0.004601709842681885	1.05031005859375	0.03720949935913086	-0.008177129745483399	1.022969970703125	-0.002928809881210327	-0.015291600227355958	1.0310899658203125	0.025841499328613283	0.006678460121154785	1.0634300537109376	0.03019820022583008	0.01133430004119873	1.0586700439453125	0.033300800323486326	0.013847800254821777	1.031199951171875	-0.005168449878692627	0.008210410118103027	1.0333299560546876	0.014773200035095215	0.018863300323486328	1.0757900390625	0.02680590057373047	0.023936599731445313	1.06593994140625	0.028589099884033204	0.030301799774169923	1.0470400390625	-0.002198669910430908	0.030771999359130858	1.04318994140625	-0.01477400016784668	0.011222299575805663	1.1156500244140626
14	0.4666666666666667	0.053179298400878906	-0.002657259941101074	1.025239990234375	0.051232799530029294	-0.012917900085449218	1.0486700439453125	0.03653760147094726	-0.01614739990234375	1.07472998046875	0.021271699905395507	0.00331806993484497	1.090800048828125	0.028973600387573243	-0.023874900817871095	1.059780029296875	0.04107669830322266	-0.024041200637817384	1.0439599609375	0.03868880081176758	-0.03013509941101074	1.02402001953125	0.004519309997558594	-0.03645750045776367	1.0401500244140625	0.03286280059814453	-0.006854949951171875	1.0574300537109376	0.03701480102539063	-0.005099269866943359	1.050530029296875	0.03739540100097656	-0.00876548957824707	1.02325	-0.0026854100227355947	-0.01570170021057129	1.0315400390625	0.026353200912475585	0.006337590217590332	1.0630400390625	0.030706499099731447	0.010888899803161621	1.0588299560546874	0.03361019897460937	0.013264800071716308	1.0310999755859376	-0.004863810062408447	0.007840650081634521	1.0336800537109374	0.015082900047302245	0.01864870071411133	1.0759000244140624	0.027146600723266603	0.02350589942932129	1.06602001953125	0.028805200576782226	0.02978499984741211	1.0470999755859376	-0.001961619973182678	0.030434200286865234	1.0434599609375	-0.014741999626159668	0.011085300445556641	1.1158399658203124
15	0.5	0.0547327995300293	-0.002635430097579956	1.0258299560546875	0.05172930145263672	-0.01281149959564209	1.0493499755859375	0.03665589904785156	-0.01650040054321289	1.07431005859375	0.021269699096679688	0.0028558299541473387	1.090969970703125	0.02946769905090332	-0.023664100646972656	1.060030029296875	0.04202489852905274	-0.023815099716186523	1.0443499755859376	0.039654998779296874	-0.029700700759887694	1.0241400146484374	0.005123270034790039	-0.03599750137329102	1.039989990234375	0.03344430160522461	-0.0067840199470520016	1.057449951171875	0.03795980072021484	-0.004929920196533203	1.0506500244140624	0.038327598571777345	-0.008362350463867187	1.023280029296875	-0.0017312300205230711	-0.01509220027923584	1.03127001953125	0.023521600723266603	0.006581989765167237	1.0672099609375	0.03154669952392578	0.010907099723815919	1.059050048828125	0.0344911994934082	0.01361989974975586	1.0313699951171875	-0.00397881007194519	0.008356340408325195	1.0338499755859376	0.015579400062561035	0.018207000732421874	1.0761600341796875	0.027843999862670898	0.02342569923400879	1.0661500244140625	0.029403099060058592	0.029938600540161134	1.0473599853515625	-0.0012954000234603879	0.030736900329589843	1.0439100341796874	-0.014804300308227538	0.010490799903869629	1.116530029296875
16	0.5333333333333333	0.0568583984375	-0.0025076498985290518	1.0263299560546875	0.05228860092163086	-0.01258430004119873	1.0499599609375	0.03722859954833985	-0.016796600341796874	1.0746199951171875	0.02196730041503906	0.0025551900863647462	1.0913399658203125	0.02997719955444336	-0.0235	1.059969970703125	0.04276369857788086	-0.023545000076293947	1.0441300048828126	0.04075920104980469	-0.029058799743652344	1.023739990234375	0.006057390213012695	-0.035173999786376954	1.0393800048828126	0.03446720123291016	-0.006694149971008301	1.0571600341796874	0.03886169815063477	-0.004655370235443115	1.0506400146484376	0.0395890998840332	-0.007551239967346191	1.0233400268554687	-0.00054400098323822	-0.014060700416564941	1.031260009765625	0.024112899780273436	0.00662306022644043	1.0671300048828125	0.0324640007019043	0.011027299880981445	1.059219970703125	0.03577539825439453	0.014270999908447265	1.0315999755859375	-0.002719820022583008	0.009387209892272949	1.03425	0.01683139991760254	0.018037900924682618	1.0768699951171874	0.028777200698852538	0.02338409996032715	1.0668800048828124	0.030606000900268555	0.030305299758911133	1.04802001953125	-0.00025358000397682104	0.03140640068054199	1.0449100341796875	-0.014668299674987792	0.009683810234069824	1.1163900146484376
17	0.5666666666666667	0.05913399887084961	-0.004736589908599854	1.0265799560546875	0.05223550033569336	-0.013865300178527832	1.0508699951171876	0.0367406005859375	-0.017234399795532228	1.075469970703125	0.021805099487304688	0.001048750042915344	1.0916500244140626	0.030469200134277345	-0.02429330062866211	1.05902001953125	0.04331579971313477	-0.024590599060058595	1.0432099609375	0.04060380172729492	-0.03023139953613281	1.0227999877929688	0.006065060138702392	-0.03490470123291016	1.0388800048828124	0.03466970062255859	-0.007623280048370361	1.058449951171875	0.03982820129394531	-0.005607049942016601	1.04968994140625	0.03987799835205078	-0.008210450172424317	1.02225	-2.2392099723219e-05	-0.01370870018005371	1.03131005859375	0.02366200065612793	0.0055157699584960935	1.0711700439453125	0.033594398498535155	0.010210000038146972	1.0586800537109375	0.03660039901733399	0.013670599937438965	1.03106005859375	-0.001811920046806335	0.009717769622802734	1.0348199462890626	0.0182278995513916	0.01721500015258789	1.076719970703125	0.030262599945068358	0.022764400482177736	1.06631005859375	0.03139789962768555	0.029929899215698243	1.0476600341796876	0.000647837996482849	0.03134530067443848	1.0455899658203125	-0.014301300048828125	0.008827839851379395	1.1171700439453125
